<svg width="147" height="28" viewBox="0 0 147 28" fill="none" xmlns="http://www.w3.org/2000/svg">
    <path fill-rule="evenodd" clip-rule="evenodd" d="M71.22 4.35835H66.9072V0.00012207H71.22V4.35835ZM63.805 13.4708V23.7714H59.525V14.3621C59.525 12.15 58.1201 10.7965 56.323 10.7965C54.0359 10.7965 52.533 12.3812 52.533 15.8477V23.7714H48.2203V14.3621C48.2203 12.15 46.8152 10.7965 45.0183 10.7965C42.7312 10.7965 41.2937 12.3812 41.2937 15.8477V23.7714H36.981V7.29676H41.2937V8.65053C42.4371 7.49463 44.038 6.80171 46.1617 6.80171C48.351 6.80171 50.344 7.75902 51.5201 9.50878C52.8598 7.82506 54.8528 6.80171 57.4666 6.80171C60.8644 6.80171 63.805 9.44274 63.805 13.4708ZM66.9072 23.7715H71.22V7.29678H66.9072V23.7715ZM90.6923 13.7347V23.7715H86.3796V14.6592C86.3796 12.3482 85.0726 10.7965 83.0798 10.7965C80.6293 10.7965 79.0282 12.4472 79.0282 16.475V23.7715H74.7155V7.29678H79.0282V8.78239C80.3026 7.49466 82.0015 6.80174 84.1579 6.80174C88.0785 6.80174 90.6923 9.64087 90.6923 13.7347ZM100.983 10.5982C103.303 10.5982 105.623 12.5131 105.623 15.5506C105.623 18.588 103.303 20.4699 100.983 20.4699C98.3695 20.4699 96.4092 18.588 96.4092 15.5506C96.4092 12.5131 98.3695 10.5982 100.983 10.5982ZM105.623 23.7713H109.936V0.00016924H105.623V8.61734C104.25 7.46192 102.454 6.80155 100.232 6.80155C96.0825 6.80155 92.2269 10.3671 92.2269 15.5506C92.2269 20.734 96.0825 24.2668 100.232 24.2668C102.454 24.2668 104.25 23.6062 105.623 22.4838V23.7713ZM116.306 13.6357H124.18C123.625 11.5227 122.056 10.5982 120.324 10.5982C118.691 10.5982 116.829 11.5888 116.306 13.6357ZM128.591 16.7064H116.175C116.6 19.0833 118.266 20.5359 120.259 20.5359C121.533 20.5359 123.134 20.371 124.31 18.3571L128.166 19.1824C126.728 22.6158 123.821 24.2668 120.259 24.2668C115.652 24.2668 111.895 20.734 111.895 15.5505C111.895 10.3673 115.652 6.80153 120.324 6.80153C124.67 6.80153 128.427 10.202 128.591 15.2206V16.7064ZM142.589 13.6357H134.715C135.238 11.5888 137.1 10.5982 138.734 10.5982C140.465 10.5982 142.034 11.5227 142.589 13.6357ZM134.584 16.7064H147V15.2206C146.836 10.202 143.079 6.80153 138.734 6.80153C134.061 6.80153 130.304 10.3673 130.304 15.5505C130.304 20.734 134.061 24.2668 138.668 24.2668C142.23 24.2668 145.138 22.6158 146.575 19.1824L142.72 18.3571C141.543 20.371 139.943 20.5359 138.668 20.5359C136.675 20.5359 135.009 19.0833 134.584 16.7064Z" fill="#001E3C"/>
    <path fill-rule="evenodd" clip-rule="evenodd" d="M3.9623 4.00003V12.0001V24.0002H11.8869V28H0V12.0001V0H11.8869V4.00003H3.9623ZM15.8491 4.0001V7e-05H27.7358V12.0002V28.0001H15.8491V24H23.7735V12.0002V4.0001H15.8491ZM7.92432 12.0003H19.8112V8.00023H7.92432V12.0003ZM11.8868 20.0001H7.92455V15.9998H11.8868V20.0001Z" fill="#FD3246"/>
</svg>
