<svg width="24" height="24" viewBox="0 0 24 24" fill="none" xmlns="http://www.w3.org/2000/svg">
<path fill-rule="evenodd" clip-rule="evenodd" d="M22 5.91667C21.25 6.25 20.5 6.5 19.6667 6.58333C20.5 6.08333 21.1667 5.25 21.5 4.33333C20.6667 4.83333 19.8333 5.16667 18.9167 5.33333C18.1667 4.5 17.0833 4 15.9167 4C13.6667 4 11.8333 5.83333 11.8333 8.08333C11.8333 8.41667 11.8333 8.75 11.9167 9C8.41667 8.83333 5.41667 7.16667 3.41667 4.66667C3 5.33333 2.83333 6 2.83333 6.75C2.83333 8.16667 3.58333 9.41667 4.66667 10.1667C4 10.1667 3.33333 10 2.83333 9.66667C2.83333 9.66667 2.83333 9.66667 2.83333 9.75C2.83333 11.75 4.25 13.4167 6.08333 13.75C5.75 13.8333 5.41667 13.9167 5 13.9167C4.75 13.9167 4.5 13.9167 4.25 13.8333C4.75 15.5 6.25 16.6667 8.08333 16.6667C6.66667 17.75 4.91667 18.4167 3 18.4167C2.66667 18.4167 2.33333 18.4167 2 18.3333C3.83333 19.5 6 20.1667 8.25 20.1667C15.8333 20.1667 19.9167 13.9167 19.9167 8.5C19.9167 8.33333 19.9167 8.16667 19.9167 8C20.75 7.41667 21.4167 6.66667 22 5.91667Z" fill="#1DA1F2"/>
<mask id="mask0_1504_2272" style="mask-type:alpha" maskUnits="userSpaceOnUse" x="2" y="4" width="20" height="17">
<path fill-rule="evenodd" clip-rule="evenodd" d="M22 5.91667C21.25 6.25 20.5 6.5 19.6667 6.58333C20.5 6.08333 21.1667 5.25 21.5 4.33333C20.6667 4.83333 19.8333 5.16667 18.9167 5.33333C18.1667 4.5 17.0833 4 15.9167 4C13.6667 4 11.8333 5.83333 11.8333 8.08333C11.8333 8.41667 11.8333 8.75 11.9167 9C8.41667 8.83333 5.41667 7.16667 3.41667 4.66667C3 5.33333 2.83333 6 2.83333 6.75C2.83333 8.16667 3.58333 9.41667 4.66667 10.1667C4 10.1667 3.33333 10 2.83333 9.66667C2.83333 9.66667 2.83333 9.66667 2.83333 9.75C2.83333 11.75 4.25 13.4167 6.08333 13.75C5.75 13.8333 5.41667 13.9167 5 13.9167C4.75 13.9167 4.5 13.9167 4.25 13.8333C4.75 15.5 6.25 16.6667 8.08333 16.6667C6.66667 17.75 4.91667 18.4167 3 18.4167C2.66667 18.4167 2.33333 18.4167 2 18.3333C3.83333 19.5 6 20.1667 8.25 20.1667C15.8333 20.1667 19.9167 13.9167 19.9167 8.5C19.9167 8.33333 19.9167 8.16667 19.9167 8C20.75 7.41667 21.4167 6.66667 22 5.91667Z" fill="white"/>
</mask>
<g mask="url(#mask0_1504_2272)">
<rect width="24" height="24" fill="grey"/>
</g>
</svg>
